HIERARCHY
ROOT pelvis
{
  OFFSET 0 100 0
  CHANNELS 6 Xposition Yposition Zposition Zrotation Xrotation Yrotation
  JOINT pelvis_right_femur
  {
    OFFSET -10.78128 -3.44521 -0.5502486
    CHANNELS 3 Zrotation Xrotation Yrotation
    JOINT right_femur_tibia
    {
      OFFSET -0.8047443 -44.0398 -0.1307829
      CHANNELS 3 Zrotation Xrotation Yrotation
      JOINT right_tibia_foot
      {
        OFFSET 3.006224 -47.83518 -5
        CHANNELS 3 Zrotation Xrotation Yrotation
        End Site
        {
          OFFSET 0 -5 15
        }
      }
    }
  }
  JOINT pelvis_left_femur
  {
    OFFSET 10.78128 -3.44521 -0.5502486
    CHANNELS 3 Zrotation Xrotation Yrotation
    JOINT left_femur_tibia
    {
      OFFSET 0.8047443 -44.0398 -0.1307829
      CHANNELS 3 Zrotation Xrotation Yrotation
      JOINT left_tibia_foot
      {
        OFFSET -4.370144 -48.10324 -4.275266
        CHANNELS 3 Zrotation Xrotation Yrotation
        End Site
        {
          OFFSET 0 -5 15
        }
      }
    }
  }
  JOINT pelvis_spine1
  {
    OFFSET 0 6.468898 -3.129235
    CHANNELS 3 Zrotation Xrotation Yrotation
    JOINT spine1
    {
      OFFSET 0 23.15396 4.99043
      CHANNELS 3 Zrotation Xrotation Yrotation
      JOINT spine2
      {
        OFFSET 0 20.79997 -5.064912
        CHANNELS 3 Zrotation Xrotation Yrotation
        JOINT neck
        {
          OFFSET 0 14.38658 9.616178
          CHANNELS 3 Zrotation Xrotation Yrotation
          End Site
          {
            OFFSET 0 20 0
          }
        }
      }
      JOINT right_manubrium
      {
        OFFSET -5.722621 16.35077 3.967754
        CHANNELS 3 Zrotation Xrotation Yrotation
        JOINT right_clavicle
        {
          OFFSET -13.16364 1.694482 -4.693211
          CHANNELS 3 Zrotation Xrotation Yrotation
          JOINT right_humerus
          {
            OFFSET -28.5034 -0.3100689 -2.792744
            CHANNELS 3 Zrotation Xrotation Yrotation
            JOINT right_radius
            {
              OFFSET -25.15693 0.02248979 -1.271978
              CHANNELS 3 Zrotation Xrotation Yrotation
              End Site
              {
                OFFSET -15 0 0
              }
            }
          }
        }
      }
      JOINT left_manubrium
      {
        OFFSET 5.722621 16.35077 3.967754
        CHANNELS 3 Zrotation Xrotation Yrotation
        JOINT left_clavicle
        {
          OFFSET 13.16364 1.694482 -4.693211
          CHANNELS 3 Zrotation Xrotation Yrotation
          JOINT left_humerus
          {
            OFFSET 29.39168 -1.063119 -2.237045
            CHANNELS 3 Zrotation Xrotation Yrotation
            JOINT left_radius
            {
              OFFSET 24.59957 -0.9528479 0.9047498
              CHANNELS 3 Zrotation Xrotation Yrotation
              End Site
              {
                OFFSET 15 -0 -0
              }
            }
          }
        }
      }
    }
  }
}
MOTION
Frames: 21
Frame Time: 0.0416666666667
487.2461 104.3813 2727.131 1.147661 -7.347206 13.66958 2.19189 -16.25599 2.975202 -0 41.37948 -0 -9.21262 3.020938 -5.137771 -5.065249 12.08004 -11.22489 -0 12.16067 -0 -4.220906 -20.59168 15.77398 -1.817925 -0.03659469 1.904227 2.086623 9.687771 -8.130466 1.395454 24.00904 6.018659 1.139661 -23.73597 8.469505 -2.786187 -19.66932 9.251222 92.79837 15.41668 -19.82893 -0 0 11.18781 -14.25349 2.906335 7.963888 3.930017 -21.2176 -4.322648 -91.83766 32.74843 19.63243 0 0 -16.78252 -3.700152 8.777111 20.36729
488.2061 104.081 2731.305 0.7163424 -6.326737 14.39376 2.556198 -19.42171 3.909509 -0 35.32471 -0 -9.221003 -0.8467632 -5.826528 -4.631444 14.33299 -12.66227 -0 11.76364 -0 -6.861282 -22.42194 15.27684 -1.365943 -0.2213948 2.109418 1.96705 8.574921 -8.110785 1.95687 23.90929 5.852342 1.012313 -23.82297 9.211133 -2.317452 -18.88853 8.491475 92.28507 16.30231 -21.11429 -0 0 11.42969 -13.27023 4.389219 5.960551 4.680397 -21.37776 -3.478616 -92.5227 35.25225 19.28702 0 0 -17.72808 -4.799003 11.56458 21.51446
489.1046 103.6581 2735.294 -0.009806556 -4.849209 15.02953 3.437221 -22.2066 5.164545 -0 30.95642 -0 -9.357044 -3.440846 -6.036238 -4.23359 15.65863 -14.0693 -0 11.80104 -0 -8.495123 -23.53066 15.11618 -0.9271872 -0.5103069 2.400846 1.846301 7.80903 -8.072298 2.370758 23.55154 5.905288 1.159041 -24.14191 9.893086 -1.353888 -18.27045 8.036544 91.65592 18.73938 -22.14438 -0 0 11.65513 -12.12668 6.18465 4.298348 5.367921 -21.56675 -2.6215 -93.57422 36.95202 19.80449 0 0 -18.58273 -5.087461 14.24604 21.99107
489.9919 103.2435 2739.147 -0.9441168 -3.132314 15.63322 4.741423 -24.82874 6.537105 -0 28.02566 -0 -9.448265 -5.012636 -5.860334 -3.929611 16.27713 -15.34171 -0 12.1103 -0 -8.962675 -23.9376 15.2336 -0.512853 -0.7940468 2.680158 1.809058 7.398354 -8.046222 2.609075 23.01127 6.134978 1.471923 -24.66152 10.48744 -0.1336907 -17.84016 7.912399 91.07099 22.05532 -22.88467 -0 0 11.81428 -10.84843 7.911531 3.139786 5.909444 -21.71885 -1.885934 -94.62826 37.66189 20.7447 0 0 -19.40315 -4.486008 16.38497 21.63285
490.9211 102.9047 2742.937 -1.936404 -1.384922 16.24357 6.24578 -27.32258 7.807591 -0 25.9938 -0 -9.403607 -5.839763 -5.398949 -3.762809 16.42992 -16.37247 -0 12.61677 -0 -8.379441 -23.74886 15.50202 -0.1716833 -1.003973 2.89713 1.890611 7.286375 -8.038556 2.689238 22.37475 6.459023 1.854157 -25.28926 10.95838 1.135815 -17.55595 8.069594 90.59342 25.61573 -23.35205 -0 0 11.84899 -9.558687 9.317112 2.529149 6.274757 -21.79509 -1.345478 -95.28964 37.39714 21.57528 0 0 -20.24244 -3.052433 17.70575 20.37779
491.9419 102.6572 2746.753 -2.849013 0.2266487 16.86949 7.710469 -29.62236 8.787915 -0 24.3722 -0 -9.217063 -6.1306 -4.747864 -3.740206 16.32937 -17.08479 -0 13.32789 -0 -7.069275 -23.11602 15.75625 0.05991773 -1.113539 3.033252 2.080617 7.38964 -8.047971 2.64295 21.71925 6.806277 2.245283 -25.90936 11.27171 2.315914 -17.35223 8.420845 90.21578 28.9576 -23.59781 -0 0 11.72759 -8.408636 10.30995 2.413024 6.480147 -21.7973 -1.021423 -95.35236 36.33862 21.95233 0 0 -21.13144 -1.02409 18.12582 18.37566
493.094 102.4874 2750.68 -3.597622 1.59468 17.4974 8.951425 -31.62162 9.357227 -0 22.87735 -0 -8.936538 -6.035294 -3.989327 -3.832288 16.12094 -17.45327 -0 14.29454 -0 -5.459798 -22.19962 15.83442 0.1839232 -1.128699 3.090813 2.337168 7.621435 -8.070618 2.499158 21.10218 7.138774 2.620465 -26.41948 11.4088 3.339699 -17.17088 8.873702 89.89886 31.81566 -23.682 -0 0 11.47224 -7.518725 10.92811 2.673824 6.571486 -21.75535 -0.8941364 -94.87189 34.74783 21.82317 0 0 -22.0489 1.236156 17.75187 15.95846
494.4034 102.3766 2754.786 -4.153498 2.668769 18.10492 9.865053 -33.20498 9.474262 -0 21.42512 -0 -8.626427 -5.681198 -3.186829 -3.990649 15.87178 -17.49802 -0 15.5786 -0 -3.955769 -21.13382 15.6202 0.2348649 -1.07552 3.086285 2.607216 7.907877 -8.101127 2.279196 20.55816 7.447304 2.976673 -26.7547 11.37199 4.193718 -16.9754 9.353126 89.60202 34.08569 -23.65682 -0 0 11.14946 -6.953149 11.27573 3.170946 6.602713 -21.70792 -0.9179709 -94.06171 32.88006 21.33159 0 0 -22.92024 3.379383 16.82556 13.48768
495.8832 102.3147 2759.112 -4.522552 3.442396 18.66975 10.41774 -34.26663 9.162495 -0 20.04103 -0 -8.342118 -5.186071 -2.38335 -4.169228 15.58406 -17.26112 -0 17.24166 -0 -2.838145 -20.00051 15.06692 0.2565438 -0.9889857 3.04517 2.845276 8.198677 -8.134938 1.997866 20.10183 7.735517 3.318652 -26.89309 11.1782 4.892034 -16.75244 9.81155 89.29974 35.76724 -23.56256 -0 0 10.83545 -6.726066 11.46209 3.777782 6.618794 -21.68935 -1.03888 -93.14271 30.92482 20.66401 0 0 -23.65042 5.190683 15.62559 11.20546
497.537 102.3049 2763.682 -4.720215 3.933126 19.17188 10.62144 -34.72073 8.481332 -0 18.77259 -0 -8.121914 -4.647612 -1.603451 -4.33727 15.21928 -16.7828 -0 19.34895 -0 -2.225915 -18.82319 14.19643 0.2816226 -0.9043992 2.997384 3.022514 8.471728 -8.170746 1.665936 19.73476 8.006093 3.651196 -26.84503 10.84731 5.453614 -16.50729 10.22791 88.98774 36.91057 -23.43181 -0 0 10.58514 -6.823095 11.56449 4.40129 6.647885 -21.72621 -1.211778 -92.25619 28.98202 19.95332 0 0 -24.16528 6.616429 14.37767 9.184933
499.3604 102.3619 2768.505 -4.753877 4.161645 19.59224 10.51227 -34.50184 7.501238 -0 17.64743 -0 -7.991726 -4.128141 -0.8595764 -4.480657 14.71968 -16.0882 -0 21.97502 -0 -2.097377 -17.58174 13.08316 0.3244634 -0.8517282 2.973748 3.124807 8.731591 -8.210616 1.292694 19.4539 8.253971 3.977193 -26.63494 10.39312 5.887107 -16.25875 10.60022 88.68426 37.57601 -23.29548 -0 0 10.42129 -7.222824 11.61777 4.981171 6.701506 -21.84065 -1.413335 -91.45465 27.07142 19.25934 0 0 -24.43502 7.718122 13.21833 7.368456
501.3414 102.5078 2773.584 -4.615405 4.134102 19.91121 10.13898 -33.55915 6.291626 -0 16.67039 -0 -7.974898 -3.647354 -0.161379 -4.594979 14.02055 -15.18557 -0 25.20149 -0 -2.338405 -16.23951 11.83842 0.3848489 -0.8524977 3.003936 3.144952 9.004159 -8.257886 0.8890266 19.25949 8.464549 4.297616 -26.28574 9.821051 6.181182 -16.03663 10.93668 88.4301 37.8058 -23.18634 -0 0 10.34049 -7.911274 11.62109 5.476629 6.778491 -22.05588 -1.647657 -90.7319 25.16252 18.59076 0 0 -24.47398 8.609723 12.21147 5.633362
503.458 102.7688 2778.91 -4.281745 3.830282 20.10856 9.561149 -31.85401 4.920274 -0 15.83329 -0 -8.101843 -3.184006 0.4736182 -4.67518 13.05604 -14.07263 -0 29.10133 -0 -2.786112 -14.77295 10.60345 0.4554545 -0.9180433 3.114956 3.075577 9.330363 -8.314519 0.4718761 19.16117 8.61282 4.60996 -25.81168 9.132267 6.296883 -15.88256 11.24825 88.28973 37.60562 -23.13816 -0 0 10.32412 -8.887823 11.55061 5.851295 6.86832 -22.39992 -1.945908 -90.05767 23.20795 17.93515 0 0 -24.32628 9.412942 11.38779 3.844905
505.674 103.1708 2784.465 -3.721779 3.19833 20.16543 8.853203 -29.36931 3.45879 -0 15.11884 -0 -8.416347 -2.683378 1.009287 -4.704997 11.76507 -12.74802 -0 33.70526 -0 -3.254378 -13.1977 9.550258 0.5282552 -1.047643 3.328319 2.9068 9.760054 -8.378841 0.07031489 19.18148 8.661008 4.903195 -25.21981 8.332663 6.160746 -15.85372 11.54329 88.35222 36.93371 -23.17879 -0 0 10.34707 -10.1623 11.37278 6.063843 6.950808 -22.90397 -2.362392 -89.40362 21.17137 17.28446 0 0 -24.04612 10.23444 10.78201 1.889616
507.9347 103.7339 2790.212 -2.909463 2.157666 20.06813 8.10963 -26.13136 1.988635 -0 14.49522 -0 -8.97442 -2.071873 1.382229 -4.648527 10.10389 -11.22763 -0 38.94528 -0 -3.544813 -11.58593 8.882145 0.5985426 -1.225807 3.654196 2.630071 10.34448 -8.443559 -0.2679687 19.35531 8.555087 5.148895 -24.51739 7.444879 5.662315 -16.02741 11.82322 88.72642 35.69835 -23.31283 -0 0 10.38522 -11.74186 11.05896 6.069545 6.991189 -23.59146 -2.967466 -88.76195 19.0487 16.65761 0 0 -23.67253 11.15453 10.45626 -0.3002998
510.1656 104.463 2796.093 -1.843906 0.6158204 19.81216 7.444942 -22.23401 0.6039404 -0 13.90796 -0 -9.828221 -1.286303 1.500886 -4.448159 8.066551 -9.564557 -0 44.57592 -0 -3.457049 -10.06358 8.819222 0.6667166 -1.420105 4.082793 2.247904 11.12376 -8.49394 -0.4738476 19.72145 8.223896 5.291035 -23.72237 6.519968 4.666562 -16.50198 12.07835 89.52118 33.77226 -23.49144 -0 0 10.42857 -13.60567 10.60388 5.837756 6.932998 -24.45394 -3.833459 -88.16092 16.88425 16.12544 0 0 -23.19314 12.21466 10.50354 -2.719377
512.2806 105.3374 2802.025 -0.5741357 -1.490886 19.40198 6.980715 -17.84224 -0.5906345 -0 13.28298 -0 -10.98694 -0.3249471 1.262706 -4.036159 5.705039 -7.866862 -0 50.09645 -0 -2.818738 -8.770712 9.549425 0.7377358 -1.583921 4.577733 1.786485 12.10638 -8.507376 -0.4658631 20.301 7.588937 5.24279 -22.87332 5.641117 3.057498 -17.38594 12.28407 90.80364 31.04274 -23.57886 -0 0 10.50838 -15.6693 10.04641 5.387347 6.697656 -25.41555 -5.006196 -87.67678 14.77926 15.83622 0 0 -22.50092 13.39461 11.02325 -5.254304
514.2029 106.3028 2807.909 0.7806493 -4.126829 18.84207 6.811853 -13.15511 -1.488915 -0 12.55565 -0 -12.35914 0.6900325 0.5989414 -3.365166 3.126135 -6.29736 -0 54.73693 -0 -1.555767 -7.78213 11.1311 0.8174188 -1.669599 5.08161 1.303197 13.24348 -8.457388 -0.1813098 21.06204 6.596097 4.905815 -22.03486 4.908353 0.8232383 -18.76385 12.40185 92.54093 27.51697 -23.35186 -0 0 10.7346 -17.75412 9.4804 4.827781 6.207081 -26.30548 -6.456829 -87.43091 12.88439 16.02223 0 0 -21.37837 14.5808 12.06165 -7.655837
515.8954 107.2764 2813.653 2.032569 -7.074798 18.12225 6.953778 -8.345829 -2.004071 -0 11.72343 -0 -13.71308 1.484195 -0.4579689 -2.448062 0.441852 -5.034156 -0 57.5953 -0 0.2038676 -7.037486 13.37107 0.9049462 -1.651342 5.541742 0.8777589 14.41233 -8.324373 0.3711318 21.88829 5.272915 4.223352 -21.29425 4.400522 -1.841641 -20.63534 12.39483 94.54589 23.46405 -22.57925 -0 0 11.3102 -19.59752 9.037488 4.368433 5.438812 -26.87985 -8.026866 -87.55441 11.36619 16.94809 0 0 -19.57597 15.54995 13.53009 -9.552983
517.3833 108.1674 2819.201 2.966569 -9.903098 17.21731 7.300027 -3.549499 -2.102636 -0 10.88324 -0 -14.71687 1.69828 -1.719474 -1.376074 -2.309587 -4.189087 -0 57.94356 -0 2.073131 -6.372333 15.77699 0.9835508 -1.543416 5.944288 0.5834604 15.43106 -8.108866 1.067873 22.59133 3.783804 3.246913 -20.74453 4.134924 -4.495728 -22.8525 12.26369 96.4514 19.49142 -21.17341 -0 0 12.46527 -20.93739 8.839306 4.254335 4.482579 -26.92355 -9.41642 -88.11604 10.3531 18.77749 0 0 -17.0132 16.01639 15.15331 -10.55036
518.7482 108.9027 2824.553 3.4217 -12.05939 16.12209 7.644092 1.063387 -1.832242 -0 10.20139 -0 -15.07701 1.050549 -2.858611 -0.2861206 -5.194117 -3.733287 -0 55.54531 -0 3.523067 -5.658036 17.70851 1.017676 -1.394337 6.321378 0.4545795 16.11331 -7.835344 1.692162 22.98943 2.418744 2.155355 -20.4522 4.063251 -6.559988 -25.11555 12.07944 97.75087 16.41591 -19.29576 -0 0 14.30314 -21.64157 8.948826 4.64604 3.527186 -26.38336 -10.27564 -89.0522 9.895325 21.42078 0 0 -13.9738 15.76751 16.52181 -10.4005
